<svg width="114" height="99" viewBox="0 0 54 39" fill="none" xmlns="http://www.w3.org/2000/svg">
<rect width="54" height="39" fill="#4EA56C"/>
<path d="M5 10C5 7.23858 7.23858 5 10 5H44C46.7614 5 49 7.23858 49 10V29C49 31.7614 46.7614 34 44 34H10C7.23858 34 5 31.7614 5 29V10Z" fill="#35734A"/>
<path d="M21.8672 27.9375C21.4805 27.9375 21.1494 27.7998 20.874 27.5244C20.5986 27.249 20.4609 26.918 20.4609 26.5313V13.1719H19.5V11.7656H23.9063V11.0625H30.0938V11.7656H34.5V13.1719H33.5391V26.5313C33.5391 26.9063 33.3984 27.2344 33.1172 27.5156C32.8359 27.7969 32.5078 27.9375 32.1328 27.9375H21.8672ZM32.1328 13.1719H21.8672V26.5313H32.1328V13.1719ZM24.3516 24.5156H25.7578V15.1641H24.3516V24.5156ZM28.2422 24.5156H29.6484V15.1641H28.2422V24.5156Z" fill="white"/>
</svg>
