<svg width="114" height="99" viewBox="0 0 54 39" fill="none" xmlns="http://www.w3.org/2000/svg">
<rect width="54" height="39" fill="#4EA56C"/>
<path d="M5 10C5 7.23858 7.23858 5 10 5H44C46.7614 5 49 7.23858 49 10V29C49 31.7614 46.7614 34 44 34H10C7.23858 34 5 31.7614 5 29V10Z" fill="#35734A"/>
<path d="M34 15.5528V25.3333C34 25.6444 33.8833 25.9167 33.65 26.15C33.4167 26.3833 33.1444 26.5 32.8333 26.5H21.1667C20.8556 26.5 20.5833 26.3833 20.35 26.15C20.1167 25.9167 20 25.6444 20 25.3333V13.6667C20 13.3556 20.1167 13.0833 20.35 12.85C20.5833 12.6167 20.8556 12.5 21.1667 12.5H30.9472L34 15.5528ZM32.8333 16.0778L30.4222 13.6667H21.1667V25.3333H32.8333V16.0778ZM26.9955 24.0694C27.5559 24.0694 28.0338 23.8733 28.4292 23.4809C28.8245 23.0886 29.0222 22.6122 29.0222 22.0518C29.0222 21.4913 28.8261 21.0134 28.4337 20.6181C28.0414 20.2227 27.565 20.025 27.0045 20.025C26.4441 20.025 25.9662 20.2212 25.5708 20.6135C25.1755 21.0058 24.9778 21.4822 24.9778 22.0427C24.9778 22.6031 25.1739 23.081 25.5663 23.4764C25.9586 23.8718 26.435 24.0694 26.9955 24.0694ZM22.1972 17.4778H29.1583V14.6972H22.1972V17.4778Z" fill="white"/>
</svg>
