<svg width="114" height="99" viewBox="0 0 54 39" fill="none" xmlns="http://www.w3.org/2000/svg">
<rect width="54" height="39" fill="#4EA56C"/>
<path d="M5 10C5 7.23858 7.23858 5 10 5H44C46.7614 5 49 7.23858 49 10V29C49 31.7614 46.7614 34 44 34H10C7.23858 34 5 31.7614 5 29V10Z" fill="#35734A"/>
<path d="M25.4347 27L25.078 24.627C24.8077 24.5349 24.5167 24.4011 24.205 24.2254C23.8932 24.0498 23.6245 23.8639 23.3988 23.6675L21.1913 24.6725L19.6139 21.8836L21.6088 20.4155C21.5825 20.2768 21.5635 20.1255 21.5519 19.9615C21.5403 19.7976 21.5344 19.6463 21.5344 19.5076C21.5344 19.374 21.5403 19.2252 21.5519 19.0612C21.5635 18.8973 21.5825 18.7383 21.6088 18.5845L19.6139 17.1088L21.1913 14.3426L23.3912 15.3325C23.6321 15.1361 23.9034 14.9514 24.205 14.7783C24.5066 14.6053 24.7951 14.4767 25.0704 14.3927L25.4347 12H28.5653L28.9221 14.3806C29.2126 14.4879 29.503 14.621 29.7935 14.7799C30.084 14.9388 30.3457 15.123 30.5784 15.3325L32.8163 14.3426L34.3861 17.1088L32.3608 18.5754C32.3973 18.7323 32.42 18.8902 32.4292 19.0491C32.4383 19.208 32.4428 19.3583 32.4428 19.5C32.4428 19.6366 32.437 19.7824 32.4253 19.9373C32.4137 20.0921 32.3922 20.253 32.3608 20.4201L34.3785 21.8836L32.8011 24.6725L30.5784 23.6599C30.3325 23.8664 30.0671 24.0569 29.7821 24.2315C29.4972 24.4061 29.2105 24.5354 28.9221 24.6194L28.5653 27H25.4347ZM26.9772 21.7242C27.5967 21.7242 28.1222 21.5083 28.5539 21.0767C28.9856 20.645 29.2014 20.1194 29.2014 19.5C29.2014 18.8806 28.9856 18.355 28.5539 17.9233C28.1222 17.4917 27.5967 17.2758 26.9772 17.2758C26.3629 17.2758 25.8386 17.4917 25.4044 17.9233C24.9702 18.355 24.7531 18.8806 24.7531 19.5C24.7531 20.1194 24.9702 20.645 25.4044 21.0767C25.8386 21.5083 26.3629 21.7242 26.9772 21.7242ZM26.9772 20.8284C26.6108 20.8284 26.2978 20.6986 26.0382 20.439C25.7786 20.1794 25.6488 19.8664 25.6488 19.5C25.6488 19.1336 25.7786 18.8206 26.0382 18.561C26.2978 18.3014 26.6108 18.1716 26.9772 18.1716C27.3487 18.1716 27.663 18.3014 27.92 18.561C28.1771 18.8206 28.3057 19.1336 28.3057 19.5C28.3057 19.8664 28.1771 20.1794 27.92 20.439C27.663 20.6986 27.3487 20.8284 26.9772 20.8284ZM26.1544 26.1043H27.8381L28.122 23.9013C28.541 23.7961 28.9319 23.6392 29.2948 23.4307C29.6577 23.2222 30.0046 22.9575 30.3355 22.6366L32.3973 23.5294L33.1868 22.1311L31.3619 20.7844C31.4145 20.5506 31.456 20.3302 31.4863 20.1232C31.5167 19.9162 31.5319 19.7085 31.5319 19.5C31.5319 19.2814 31.5187 19.0711 31.4924 18.8692C31.4661 18.6673 31.4226 18.4545 31.3619 18.2308L33.2019 16.8689L32.4125 15.4706L30.3279 16.3634C30.0506 16.0516 29.7161 15.7768 29.3244 15.539C28.9327 15.3011 28.5294 15.1543 28.1144 15.0987L27.8457 12.8957H26.1544L25.8932 15.0911C25.456 15.1781 25.0534 15.3272 24.6855 15.5382C24.3176 15.7492 23.9747 16.0218 23.6569 16.3558L21.5876 15.4706L20.7981 16.8689L22.623 18.208C22.5653 18.4165 22.5213 18.628 22.4909 18.8426C22.4605 19.0572 22.4453 19.2788 22.4453 19.5076C22.4453 19.7262 22.4605 19.9403 22.4909 20.1498C22.5213 20.3593 22.5627 20.5709 22.6154 20.7844L20.7981 22.1311L21.5876 23.5294L23.6493 22.6442C23.9651 22.9651 24.3082 23.2298 24.6787 23.4383C25.0491 23.6468 25.4514 23.8036 25.8856 23.9089L26.1544 26.1043Z" fill="white"/>
</svg>
