<svg width="154" height="139" viewBox="0 0 54 39" fill="none" xmlns="http://www.w3.org/2000/svg">
<rect width="54" height="39" fill="#4EA56C"/>
<path d="M5 10C5 7.23858 7.23858 5 10 5H44C46.7614 5 49 7.23858 49 10V29C49 31.7614 46.7614 34 44 34H10C7.23858 34 5 31.7614 5 29V10Z" fill="#35734A"/>
<path d="M27.0583 26.5C26.0861 26.5 25.1722 26.3153 24.3167 25.9458C23.4611 25.5764 22.7125 25.0741 22.0708 24.4389C21.4292 23.8037 20.9236 23.0583 20.5542 22.2028C20.1847 21.3472 20 20.4333 20 19.4611C20 18.4889 20.1847 17.5815 20.5542 16.7389C20.9236 15.8963 21.4292 15.1606 22.0708 14.5319C22.7125 13.9032 23.4611 13.4074 24.3167 13.0444C25.1722 12.6815 26.0861 12.5 27.0583 12.5C28.0954 12.5 29.0773 12.7269 30.0042 13.1806C30.931 13.6343 31.7315 14.2565 32.4056 15.0472V12.9861H33.5722V17.0306H29.5083V15.8639H31.55C30.9796 15.2028 30.3088 14.6713 29.5375 14.2694C28.7662 13.8676 27.9398 13.6667 27.0583 13.6667C25.438 13.6667 24.0509 14.2208 22.8972 15.3292C21.7435 16.4375 21.1667 17.7954 21.1667 19.4028C21.1667 21.0491 21.737 22.4491 22.8778 23.6028C24.0185 24.7565 25.412 25.3333 27.0583 25.3333C28.6787 25.3333 30.0463 24.763 31.1611 23.6222C32.2759 22.4815 32.8333 21.1009 32.8333 19.4806H34C34 21.425 33.3259 23.081 31.9778 24.4486C30.6296 25.8162 28.9898 26.5 27.0583 26.5Z" fill="white"/>
</svg>
